<?xml version="1.0" encoding="UTF-8" standalone="no"?>
<svg
   xmlns:dc="http://purl.org/dc/elements/1.1/"
   xmlns:cc="http://creativecommons.org/ns#"
   xmlns:rdf="http://www.w3.org/1999/02/22-rdf-syntax-ns#"
   xmlns:svg="http://www.w3.org/2000/svg"
   xmlns="http://www.w3.org/2000/svg"
   xmlns:sodipodi="http://sodipodi.sourceforge.net/DTD/sodipodi-0.dtd"
   xmlns:inkscape="http://www.inkscape.org/namespaces/inkscape"
   width="210mm"
   height="297mm"
   viewBox="0 0 210 297"
   version="1.1"
   id="svg8"
   inkscape:version="1.0.2 (e86c8708, 2021-01-15)"
   sodipodi:docname="home.svg">
  <defs
     id="defs2" />
  <sodipodi:namedview
     id="base"
     pagecolor="#ffffff"
     bordercolor="#666666"
     borderopacity="1.0"
     inkscape:pageopacity="0.0"
     inkscape:pageshadow="2"
     inkscape:zoom="0.35"
     inkscape:cx="400"
     inkscape:cy="560"
     inkscape:document-units="mm"
     inkscape:current-layer="layer1"
     inkscape:document-rotation="0"
     showgrid="false"
     inkscape:window-width="1248"
     inkscape:window-height="794"
     inkscape:window-x="0"
     inkscape:window-y="25"
     inkscape:window-maximized="0" />
  <metadata
     id="metadata5">
    <rdf:RDF>
      <cc:Work
         rdf:about="">
        <dc:format>image/svg+xml</dc:format>
        <dc:type
           rdf:resource="http://purl.org/dc/dcmitype/StillImage" />
        <dc:title />
      </cc:Work>
    </rdf:RDF>
  </metadata>
  <g
     inkscape:label="Ebene 1"
     inkscape:groupmode="layer"
     id="layer1">
    <path
       style="fill:#ffbf00;stroke-width:0.282222;fill-opacity:1"
       d="m 51.799282,210.81438 c -2.08085,-1.3901 -1.945808,0.88098 -1.946297,-32.73215 l -4.39e-4,-30.12723 -6.138333,-0.006 c -5.333849,-0.005 -6.287105,-0.0738 -7.273485,-0.52187 -1.404997,-0.63824 -2.78502,-1.99201 -3.594589,-3.52621 -0.881561,-1.67063 -0.870652,-4.63105 0.02376,-6.44895 0.542286,-1.10221 6.339123,-6.51168 33.721108,-31.46778 24.014395,-21.886849 33.483773,-30.349219 34.591443,-30.912869 1.10796,-0.5638 1.94392,-0.77612 3.05588,-0.77612 2.80327,0 3.70806,0.61722 12.03444,8.20948 l 7.66311,6.98746 0.15948,-1.95793 c 0.18125,-2.22522 0.74368,-3.22078 2.25947,-3.99949 0.89573,-0.46017 2.15733,-0.49165 16.96332,-0.42333 15.67475,0.0723 16.01161,0.0855 16.79223,0.65832 1.85063,1.3579 1.78288,0.54657 1.78954,21.428829 l 0.006,18.90888 6.60495,6.00449 c 7.55462,6.8678 7.92199,7.36233 7.90922,10.64663 -0.009,2.23511 -0.6034,3.6735 -2.16409,5.23418 -1.84612,1.84612 -2.78943,2.06457 -9.46851,2.1927 l -5.99722,0.11505 v 29.95899 c 0,28.61647 -0.0234,30.00306 -0.52257,30.94237 -0.28741,0.54085 -0.94119,1.26912 -1.45284,1.61837 l -0.93028,0.635 h -19.10759 -19.10764 l -0.93028,-0.635 c -0.51166,-0.34925 -1.16544,-1.07752 -1.45285,-1.61837 -0.49322,-0.92816 -0.52256,-2.01763 -0.52256,-19.40278 v -18.4194 H 104.32143 93.87921 v 18.4194 c 0,17.38515 -0.02934,18.47462 -0.522565,19.40278 -0.287412,0.54085 -0.941191,1.26912 -1.452846,1.61837 l -0.930284,0.635 H 71.865878 52.75824 Z m 33.613262,-26.24545 c 0,-17.38778 0.02926,-18.47397 0.522518,-19.39369 0.287386,-0.53586 0.8682,-1.23238 1.290695,-1.54782 0.751524,-0.56109 1.122144,-0.57353 17.095673,-0.57353 15.97354,0 16.34416,0.0125 17.09568,0.57353 0.42249,0.31544 1.00331,1.01196 1.29069,1.54782 0.49326,0.91972 0.52252,2.00591 0.52252,19.39369 v 18.41941 h 13.54292 13.54292 l 0.0743,-30.31826 0.0743,-30.31826 0.59395,-0.79674 c 1.32337,-1.77521 1.90346,-1.91194 8.76852,-2.06674 l 6.25802,-0.14111 -5.90167,-5.35932 c -4.33599,-3.93753 -6.01492,-5.64237 -6.32857,-6.42627 -0.365,-0.91221 -0.42691,-3.60378 -0.42691,-18.55902 V 91.510561 h -10.44222 -10.44223 l -0.005,4.30389 c -0.004,3.93279 -0.059,4.398689 -0.635,5.403399 -1.26469,2.20594 -4.17347,2.78616 -6.19235,1.23518 -0.511,-0.39258 -5.48205,-4.865459 -11.04676,-9.939719 -6.22716,-5.67833 -10.26823,-9.16815 -10.50924,-9.07567 -0.21538,0.0827 -14.158717,12.69612 -30.985194,28.029929 l -30.593596,27.87966 6.248399,0.14111 c 6.854379,0.15479 7.43589,0.29201 8.758897,2.06674 l 0.593945,0.79674 0.0743,30.31826 0.0743,30.31826 h 13.542921 13.542921 z"
       id="path58" />
  </g>
</svg>
