<?xml version="1.0" encoding="UTF-8" standalone="no"?>
<svg
   xmlns:dc="http://purl.org/dc/elements/1.1/"
   xmlns:cc="http://creativecommons.org/ns#"
   xmlns:rdf="http://www.w3.org/1999/02/22-rdf-syntax-ns#"
   xmlns:svg="http://www.w3.org/2000/svg"
   xmlns="http://www.w3.org/2000/svg"
   xmlns:sodipodi="http://sodipodi.sourceforge.net/DTD/sodipodi-0.dtd"
   xmlns:inkscape="http://www.inkscape.org/namespaces/inkscape"
   width="210mm"
   height="297mm"
   viewBox="0 0 210 297"
   version="1.1"
   id="svg8"
   inkscape:version="1.0.2 (e86c8708, 2021-01-15)"
   sodipodi:docname="telefon.svg">
  <defs
     id="defs2" />
  <sodipodi:namedview
     id="base"
     pagecolor="#ffffff"
     bordercolor="#666666"
     borderopacity="1.0"
     inkscape:pageopacity="0.0"
     inkscape:pageshadow="2"
     inkscape:zoom="0.35"
     inkscape:cx="400"
     inkscape:cy="560"
     inkscape:document-units="mm"
     inkscape:current-layer="layer1"
     inkscape:document-rotation="0"
     showgrid="false"
     inkscape:window-width="1248"
     inkscape:window-height="794"
     inkscape:window-x="0"
     inkscape:window-y="25"
     inkscape:window-maximized="0" />
  <metadata
     id="metadata5">
    <rdf:RDF>
      <cc:Work
         rdf:about="">
        <dc:format>image/svg+xml</dc:format>
        <dc:type
           rdf:resource="http://purl.org/dc/dcmitype/StillImage" />
        <dc:title />
      </cc:Work>
    </rdf:RDF>
  </metadata>
  <g
     inkscape:label="Ebene 1"
     inkscape:groupmode="layer"
     id="layer1">
    <path
       style="fill:#ffbf00;stroke-width:0.267368;fill-opacity:1"
       d="m 136.09689,204.34856 c -8.98944,-0.96866 -18.55849,-4.21617 -29.6779,-10.07198 -21.80872,-11.48513 -39.879444,-27.86503 -54.364299,-49.2776 -3.499543,-5.17329 -5.537137,-8.71492 -8.597298,-14.94334 -6.446597,-13.12093 -9.191124,-23.23678 -8.74102,-32.217892 0.247672,-4.9419 1.941882,-9.69604 4.668754,-13.10106 1.51615,-1.89319 11.514732,-11.93923 13.292816,-13.3559 6.214476,-4.95131 12.364294,-4.99545 18.314736,-0.13143 2.001017,1.63567 18.146836,17.83458 19.572452,19.63681 2.702645,3.41661 3.721904,7.59941 2.755726,11.308832 -0.954762,3.66558 -2.965233,6.28643 -10.117081,13.18864 -2.304526,2.22408 -4.190045,4.19929 -4.190045,4.38934 0,0.56712 2.611167,5.29426 4.350714,7.87634 3.386855,5.02725 6.748299,9.06982 12.08245,14.53071 7.265805,7.43844 14.093015,12.70645 21.728895,16.76643 l 1.93363,1.02811 5.95373,-5.87987 c 3.27456,-3.23393 6.56503,-6.26545 7.31216,-6.73672 3.95003,-2.49154 8.36103,-2.72837 12.67842,-0.68072 1.90352,0.9028 2.54905,1.49555 12.72291,11.68261 10.141,10.15416 10.76905,10.83944 11.67304,12.73682 2.11205,4.43293 2.03478,8.01255 -0.26752,12.39385 -0.81765,1.55598 -2.13864,3.06356 -7.62376,8.70062 -3.64911,3.7502 -7.26129,7.29293 -8.02708,7.87274 -1.88769,1.42928 -5.21971,2.99436 -7.80917,3.66805 -2.11666,0.55068 -7.20942,0.87693 -9.62526,0.61661 z m 9.07238,-7.53586 c 3.3999,-1.23717 3.6901,-1.47723 12.06347,-9.979 6.02236,-6.11471 6.67046,-7.05922 6.67046,-9.72122 0,-1.16132 -0.17514,-1.94676 -0.63437,-2.84497 -0.84532,-1.65336 -19.72672,-20.51562 -21.34603,-21.32439 -1.46239,-0.7304 -3.55293,-0.73254 -5.15629,-0.005 -0.85332,0.38705 -3.06358,2.3924 -7.62,6.91359 -3.52992,3.50262 -6.77899,6.54725 -7.22015,6.76584 -1.24797,0.61837 -2.6947,0.78723 -3.91937,0.45746 -0.61595,-0.16586 -2.69318,-1.14962 -4.61606,-2.18614 -7.49713,-4.04129 -14.470317,-9.40877 -21.958253,-16.90198 -8.851426,-8.85766 -13.999594,-15.60687 -17.848421,-23.39915 -1.416552,-2.86794 -1.658323,-3.57548 -1.744816,-5.10622 -0.07145,-1.26441 0.02227,-2.01418 0.324884,-2.59938 0.23391,-0.45234 3.236813,-3.60174 6.673115,-6.99868 6.959802,-6.88007 7.767701,-7.96354 7.785642,-10.441202 0.01989,-2.7469 -0.36425,-3.2328 -10.925098,-13.81903 -10.432672,-10.45806 -11.161457,-11.04131 -13.79583,-11.04131 -2.525549,0 -3.585256,0.79147 -10.837204,8.09402 -5.991979,6.0338 -6.797631,6.94973 -7.692031,8.74496 -0.549471,1.1029 -1.175087,2.84748 -1.390258,3.87685 -1.554016,7.434342 1.351092,19.162492 8.073197,32.592132 8.977439,17.93542 24.597592,36.42734 41.123136,48.68364 6.810335,5.05094 12.591377,8.6348 20.052637,12.43131 8.19014,4.16739 14.5473,6.53592 20.77956,7.74198 3.98296,0.77078 4.01545,0.77366 7.96254,0.70543 2.92065,-0.0505 3.91215,-0.17253 5.19554,-0.63954 z"
       id="path24" />
  </g>
</svg>
